<svg width="18" height="11" viewBox="0 0 18 11" fill="none" xmlns="http://www.w3.org/2000/svg">
<path d="M5.3534 2.49685C5.3534 2.67654 5.19942 2.82066 5.00744 2.82066C4.81546 2.82066 4.66148 2.67654 4.66148 2.49685C4.66148 2.04764 4.27153 1.68079 3.78958 1.68079C3.5976 1.68079 3.44362 1.53667 3.44362 1.35698C3.44362 1.1773 3.5976 1.03318 3.78958 1.03318C4.65148 1.03318 5.3534 1.69015 5.3534 2.49685ZM9.55894 1.68266C10.0389 1.68266 10.4308 2.04764 10.4308 2.49872C10.4308 2.67841 10.5848 2.82253 10.7768 2.82253C10.9688 2.82253 11.1228 2.67841 11.1228 2.49872C11.1228 1.69202 10.4208 1.03505 9.55894 1.03505C9.36696 1.03505 9.21298 1.17917 9.21298 1.35886C9.21298 1.53854 9.36696 1.68266 9.55894 1.68266ZM15.3263 1.68266C15.8062 1.68266 16.1982 2.04764 16.1982 2.49872C16.1982 2.67841 16.3522 2.82253 16.5442 2.82253C16.7361 2.82253 16.8901 2.67841 16.8901 2.49872C16.8901 1.69202 16.1882 1.03505 15.3263 1.03505C15.1343 1.03505 14.9803 1.17917 14.9803 1.35886C14.9803 1.53854 15.1343 1.68266 15.3263 1.68266ZM17.998 6.8261C17.998 6.8261 17.996 6.83359 17.996 6.83733C17.996 6.85231 17.998 6.86728 17.998 6.88038V7.0844C17.998 7.43441 17.694 7.7189 17.3201 7.7189H15.7562V10.3524H17.652C17.844 10.3524 17.998 10.4965 17.998 10.6762C17.998 10.8559 17.844 11 17.652 11H0.345962C0.153983 11 0 10.8559 0 10.6762C0 10.4965 0.153983 10.3524 0.345962 10.3524H2.24175V7.7189H0.677925C0.303966 7.72078 0 7.43815 0 7.08627V6.88225C0 6.86728 0 6.85231 0.00199978 6.8392C0.00199978 6.83546 0 6.83172 0 6.82797V2.49685C0 1.12115 1.19787 0 2.6717 0H3.79158C4.4855 0 5.14543 0.247065 5.64737 0.701889C5.78536 0.825421 5.78736 1.03131 5.65537 1.16046C5.52339 1.28773 5.30341 1.29148 5.16543 1.16794C4.79347 0.831036 4.30552 0.645738 3.78958 0.645738H2.6697C1.58182 0.647609 0.691923 1.47677 0.691923 2.49685V5.66003C0.945895 5.49719 1.25186 5.40174 1.58182 5.40174H4.87746C5.20742 5.40174 5.51339 5.49719 5.76736 5.65816V2.49685C5.76736 1.11928 6.96523 0 8.43906 0H9.55894C10.5568 0 11.4267 0.512847 11.8847 1.27089C12.3446 0.512847 13.2125 0 14.2084 0H15.3283C16.8001 0 18 1.12115 18 2.49685V6.8261H17.998ZM6.45928 2.49685V5.66003C6.71325 5.49719 7.01922 5.40174 7.35118 5.40174H10.6468C11.1468 5.40174 11.5927 5.62073 11.8827 5.9595C12.1726 5.61885 12.6186 5.40174 13.1185 5.40174H16.4142C16.7441 5.40174 17.0501 5.49719 17.3041 5.66003V2.49685C17.3041 1.4749 16.4142 0.645738 15.3243 0.645738H14.2044C13.1125 0.645738 12.2266 1.4749 12.2266 2.49685V4.71482C12.2266 4.8945 12.0727 5.03863 11.8807 5.03863C11.6887 5.03863 11.5347 4.8945 11.5347 4.71482V2.49685C11.5347 1.4749 10.6448 0.645738 9.55494 0.645738H8.43506C7.34318 0.645738 6.45528 1.4749 6.45528 2.49685H6.45928ZM11.5367 6.88225C11.5367 6.42369 11.1368 6.04935 10.6468 6.04935H7.35118C6.86124 6.04935 6.46128 6.42369 6.46128 6.88225V7.07317H11.5367V6.88225ZM0.691923 7.07317H5.76736V6.88225C5.76736 6.42369 5.3674 6.04935 4.87746 6.04935H1.58182C1.09188 6.04935 0.691923 6.42369 0.691923 6.88225V7.07317ZM2.93367 7.72078V10.3524H3.52761V7.72078H2.93367ZM4.21753 10.3543H8.00911V8.45448C8.00911 8.27854 8.16309 8.13068 8.35507 8.13068C8.54705 8.13068 8.70103 8.27854 8.70103 8.45448V10.3524H9.29697V7.72078H6.44728C6.3253 7.72078 6.21331 7.68896 6.11532 7.63655C6.01733 7.68896 5.90534 7.72078 5.78336 7.72078H4.21953V10.3543H4.21753ZM13.7805 10.3543V7.72078H12.2166C12.0947 7.72078 11.9827 7.68896 11.8847 7.63655C11.7867 7.68896 11.6747 7.72078 11.5527 7.72078H9.99089V10.3543H13.7825H13.7805ZM15.0643 7.72078H14.4704V10.3524H15.0643V7.72078ZM17.3061 6.88225C17.3061 6.42369 16.9061 6.04935 16.4162 6.04935H13.1205C12.6306 6.04935 12.2306 6.42369 12.2306 6.88225V7.07317H17.3061V6.88225Z" fill="black"/>
</svg>
